# AST/ASF file generated using VICON BodyLanguage
# -----------------------------------------------
:version 1.10
:name VICON
:units
  mass 1.0
  length 0.45
  angle deg
:documentation
   .ast/.asf automatically generated from VICON data using
   VICON BodyBuilder and BodyLanguage model FoxedUp or BRILLIANT.MOD
:root
   order TX TY TZ RX RY RZ
   axis XYZ
   position 0 0 0  
   orientation 0 0 0 
:bonedata
  begin
     id 1 
     name lhipjoint
     direction 0.578396 -0.714046 0.394458 
     length 2.21935 
     axis 0 0 0  XYZ
  end
  begin
     id 2 
     name lfemur
     direction 0.34202 -0.939693 0  
     length 6.39105  
     axis 0 0 20  XYZ
    dof rx ry rz
    limits (-160.0 20.0)
           (-70.0 70.0)
           (-60.0 70.0)
  end
  begin
     id 3 
     name ltibia
     direction 0.34202 -0.939693 0   
     length 6.99037   
     axis 0 0 20   XYZ
    dof rx
    limits (-10.0 170.0)
  end
  begin
     id 4 
     name lfoot
     direction 0.0582372 -0.160005 0.985397   
     length 2.06111   
     axis -90 7.62852e-016 20   XYZ
    dof rx rz
    limits (-45.0 90.0)
           (-70.0 20.0)
  end
  begin
     id 5 
     name ltoes
     direction 1.53556e-011 -4.21875e-011 1   
     length 1.04074   
     axis -90 7.62852e-016 20   XYZ
    dof rx
    limits (-90.0 20.0)
  end
  begin
     id 6 
     name rhipjoint
     direction -0.558179 -0.726269 0.40121   
     length 2.182  
     axis 0 0 0  XYZ 
  end
  begin
     id 7 
     name rfemur
     direction -0.34202 -0.939693 0   
     length 6.51172   
     axis 0 0 -20   XYZ
    dof rx ry rz
    limits (-160.0 20.0)
           (-70.0 70.0)
           (-70.0 60.0)
  end
  begin
     id 8 
     name rtibia
     direction -0.34202 -0.939693 0   
     length 7.02607   
     axis 0 0 -20   XYZ
    dof rx
    limits (-10.0 170.0)
 end
 begin
     id 9 
     name rfoot
     direction -0.0788856 -0.216737 0.973038   
     length 1.96734  
     axis -90 -7.62852e-016 -20   XYZ
    dof rx rz
    limits (-45.0 90.0)
           (-20.0 70.0)
  end
  begin
     id 10 
     name rtoes
     direction -1.53567e-011 -4.21783e-011 1   
     length 0.990825   
     axis -90 -7.62852e-016 -20   XYZ
    dof rx
    limits (-90.0 20.0)
  end
  begin
     id 11 
     name lowerback
     direction 0.00668177 0.999323 -0.0361741   
     length 1.7655   
     axis 0 0 0   XYZ
    dof rx ry rz
    limits (-20.0 45.0)
           (-30.0 30.0)
           (-30.0 30.0)
  end
  begin
     id 12 
     name upperback
     direction -0.00222086 0.99851 0.0545167   
     length 1.74912   
     axis 0 0 0   XYZ
    dof rx ry rz
    limits (-20.0 45.0)
           (-30.0 30.0)
           (-30.0 30.0)
  end
  begin
     id 13 
     name thorax
     direction -0.00733971 0.997496 0.0703443   
     length 1.75715   
     axis 0 0 0   XYZ
    dof rx ry rz
    limits (-20.0 45.0)
           (-30.0 30.0)
           (-30.0 30.0)
  end
  begin
     id 14 
     name lowerneck
     direction 0.0279797 0.994795 0.0979765   
     length 1.46939   
     axis 0 0 0   XYZ
    dof rx ry rz
    limits (-20.0 45.0)
           (-30.0 30.0)
           (-30.0 30.0)
  end
  begin
     id 15 
     name upperneck
     direction 0.00339187 0.976776 -0.214238   
     length 1.48018   
     axis 0 0 0   XYZ
    dof rx ry rz
    limits (-20.0 45.0)
           (-30.0 30.0)
           (-30.0 30.0)
  end
  begin
     id 16
     name head
     direction -0.00263506 0.996603 -0.0823096  
     length 1.4976  
     axis 0 0 0   XYZ
    dof rx ry rz
    limits (-20.0 45.0)
           (-30.0 30.0)
           (-30.0 30.0)
  end
  begin
     id 17 
     name lclavicle
     direction 0.894044 0.44508 -0.0508781  
     length 3.03024  
     axis 0 0 0   XYZ
    dof ry rz
    limits (-20.0 10.0)
           (0.0 20.0)
  end
  begin
     id 18 
     name lhumerus
     direction 1 -4.48961e-011 -2.39475e-018   
     length 4.4661   
     axis 180 -30 -90   XYZ
    dof rx ry rz
    limits (-60.0 90.0)
           (-90.0 90.0)
           (-90.0 90.0)
  end
  begin
     id 19
     name lradius
     direction 1 -4.48961e-011 9.29328e-028   
     length 3.41414   
     axis 180 -30 -90   XYZ
    dof rx
    limits (-10.0 170.0)
  end
  begin
     id 20
     name lwrist
     direction 1 -4.48985e-011 1.53461e-026   
     length 1.70707   
     axis -1.09697e-014 90 90   XYZ
    dof ry
    limits (-180.0 0.0)
 end
  begin
     id 21 
     name lhand
     direction 1 -4.48966e-011 3.06923e-026   
     length 0.328298   
     axis -1.95843e-014 90 90   XYZ
    dof rx rz
    limits (-90.0 90.0)
           (-45.0 45.0)
  end
  begin
     id 22 
     name lfingers
     direction 1 -4.48893e-011 6.13845e-026   
     length 0.264682   
     axis -3.91686e-014 90 90   XYZ
    dof rx
    limits (0.0 90.0)
  end
  begin
     id 23
     name lthumb
     direction 0.707107 -6.34876e-011 0.707107   
     length 0.380032   
     axis -90 45 2.85299e-015   XYZ
    dof rx rz
    limits (-45.0 45.0)
           (-45.0 45.0)
  end
  begin
     id 24 
     name rclavicle
     direction -0.936955 0.347862 -0.0332887   
     length 3.26927  
     axis 0 0 0   XYZ 
    dof ry rz
    limits (-10.0 20.0)
           (-20.0 0.0)
  end
  begin
     id 25 
     name rhumerus
     direction -1 -4.4896e-011 1.78637e-018  
     length 4.40431   
     axis 180 30 90   XYZ
    dof rx ry rz
    limits (-90.0 60.0)
           (-90.0 90.0)
           (-90.0 90.0)
  end
  begin
     id 26 
     name rradius
     direction -1 -4.48955e-011 9.34036e-027   
     length 3.04688   
     axis 180 30 90   XYZ
    dof rx
    limits (-10.0 170.0)
  end
  begin
     id 27 
     name rwrist
     direction -1 -4.49011e-011 1.53461e-026   
     length 1.52344   
     axis -1.09697e-014 -90 -90   XYZ
    dof ry
    limits (-180.0 0.0)
  end
  begin
     id 28
     name rhand
     direction -1 -4.48834e-011 3.06923e-026   
     length 0.500489   
     axis -1.95843e-014 -90 -90   XYZ
    dof rx rz
    limits (-90.0 90.0)
           (-45.0 45.0)
  end
  begin
     id 29
     name rfingers
     direction -1 -4.48967e-011 6.13845e-026   
     length 0.403507   
     axis -3.91686e-014 -90 -90   XYZ
    dof rx
    limits (0.0 90.0)
  end
  begin
     id 30
     name rthumb
     direction -0.707107 -6.34826e-011 0.707107   
     length 0.579358   
     axis -90 -45 -2.85299e-015   XYZ
    dof rx rz
    limits (-45.0 45.0)
           (-45.0 45.0)
  end
:hierarchy
  begin
    root lhipjoint rhipjoint lowerback
    lhipjoint lfemur
    lfemur ltibia
    ltibia lfoot
    lfoot ltoes
    rhipjoint rfemur
    rfemur rtibia
    rtibia rfoot
    rfoot rtoes
    lowerback upperback
    upperback thorax
    thorax lowerneck lclavicle rclavicle
    lowerneck upperneck
    upperneck head
    lclavicle lhumerus
    lhumerus lradius
    lradius lwrist
    lwrist lhand lthumb
    lhand lfingers
    rclavicle rhumerus
    rhumerus rradius
    rradius rwrist
    rwrist rhand rthumb
    rhand rfingers
  end

#!OML:ASF H:\IndianDance\Patient Classification 1\Patient 1\Session 1\dancer.ASF
:FULLY-SPECIFIED
:DEGREES
1464
root -29.058 14.4073 -10.694 -178.171 6.41673 -177.167
lowerback 5.75437 1.8297 5.0695
upperback -6.68723 3.59699 1.99791
thorax -10.219 1.61925 -1.24332
lowerneck -7.62617 -12.8332 -6.96666
upperneck 9.44928 -16.9897 5.44295
head 5.13358 -8.22926 1.4937
rclavicle -3.20043e-014 1.59028e-014
rhumerus 30.1743 39.1933 -1.37795
rradius 97.0796
rwrist -2.96914
rhand -33.6979 45.5213
rfingers 7.12502
rthumb -6.88797 15.6534
lclavicle -3.20043e-014 1.59028e-014
lhumerus 11.5856 -35.3268 -7.59585
lradius 124.215
lwrist 7.5333
lhand -34.6249 -11.7376
lfingers 7.12502
lthumb -7.78271 -341.901
rfemur -38.83 -28.604 11.4552
rtibia 71.7249
rfoot -4.83405 8.96692
rtoes 1.97718
lfemur 148.676 158.621 161.715
ltibia 58.8199
lfoot -23.4677 3.48563
ltoes 1.64447
1465
root -29.047 14.4243 -10.656 -178.145 6.24235 -177.085
lowerback 5.92602 1.81217 5.05853
upperback -6.75075 3.58927 1.97617
thorax -10.3932 1.61036 -1.26874
lowerneck -7.3144 -12.853 -6.6406
upperneck 8.46184 -17.2879 5.35563
head 4.75545 -8.51556 1.44585
rclavicle 1.56046e-014 -3.18055e-014
rhumerus 30.4544 35.9475 -2.05944
rradius 97.8282
rwrist -4.16598
rhand -34.3848 45.893
rfingers 7.12502
rthumb -7.55099 16.0478
lclavicle 1.56046e-014 -3.18055e-014
lhumerus 12.4766 -31.6218 -7.28521
lradius 125.052
lwrist 8.82655
lhand -35.5493 -11.8962
lfingers 7.12502
lthumb -8.67489 -342.094
rfemur -38.9203 -28.5673 11.0851
rtibia 73.0952
rfoot -3.82346 9.94181
rtoes 3.14907
lfemur 148.53 158.485 161.807
ltibia 58.6091
lfoot -23.0691 3.13236
ltoes 1.49846
1466
root -29.0326 14.4456 -10.6173 -178.114 6.02132 -177.039
lowerback 6.09974 1.85311 5.00785
upperback -6.83217 3.65052 1.89766
thorax -10.5832 1.63397 -1.34317
lowerneck -7.00685 -13.1243 -6.19902
upperneck 7.51217 -17.6216 5.23197
head 4.38153 -8.68426 1.38147
rclavicle -1.64991e-014 1.51076e-014
rhumerus 30.4512 32.6242 -2.796
rradius 98.3757
rwrist -5.54979
rhand -34.9203 46.0991
rfingers 7.12502
rthumb -8.06786 16.2731
lclavicle -1.64991e-014 1.51076e-014
lhumerus 13.4452 -27.729 -6.9863
lradius 125.377
lwrist 10.203
lhand -36.5734 -12.0134
lfingers 7.12502
lthumb -9.6631 -342.255
rfemur -38.9236 -28.5169 10.6594
rtibia 74.4933
rfoot -2.8976 10.6599
rtoes 4.00759
lfemur 148.413 158.397 161.86
ltibia 58.308
lfoot -22.6152 2.78602
ltoes 1.23235
1467
root -29.0147 14.4716 -10.5781 -178.073 5.756 -177.025
lowerback 6.27477 1.94438 4.92686
upperback -6.93164 3.77136 1.76709
thorax -10.7891 1.68517 -1.46636
lowerneck -6.71236 -13.4336 -5.68674
upperneck 6.58995 -18.0219 5.11134
head 4.01555 -8.88775 1.30617
rclavicle 3.78685e-014 7.15625e-015
rhumerus 30.2531 29.2566 -3.51658
rradius 98.6957
rwrist -7.06106
rhand -35.3116 46.0205
rfingers 7.12502
rthumb -8.44545 16.2094
lclavicle 3.78685e-014 7.15625e-015
lhumerus 14.4797 -23.7637 -6.70743
lradius 125.228
lwrist 11.6843
lhand -37.679 -12.0363
lfingers 7.12502
lthumb -10.7296 -342.33
rfemur -38.8414 -28.4516 10.1985
rtibia 75.8827
rfoot -2.06447 11.1419
rtoes 4.44016
lfemur 148.321 158.345 161.881
ltibia 57.9151
lfoot -22.1015 2.47252
ltoes 0.691493
1468
root -28.9937 14.5024 -10.538 -178.013 5.44343 -177.031
lowerback 6.44535 2.08544 4.8368
upperback -7.05208 3.95364 1.58183
thorax -11.009 1.76329 -1.65397
lowerneck -6.43788 -13.7841 -5.152
upperneck 5.47166 -18.4746 4.87514
head 3.95624 -9.1349 1.33081
rclavicle -2.28602e-014 9.54166e-015
rhumerus 29.881 25.8678 -4.17611
rradius 98.7761
rwrist -8.63977
rhand -35.5297 45.6392
rfingers 7.12502
rthumb -8.65599 15.8366
lclavicle -2.28602e-014 9.54166e-015
lhumerus 15.6038 -19.8401 -6.46169
lradius 124.632
lwrist 13.2357
lhand -38.8847 -12.0268
lfingers 7.12502
lthumb -11.8925 -342.385
rfemur -38.6804 -28.3834 9.7258
rtibia 77.222
rfoot -1.31162 11.4514
rtoes 4.49319
lfemur 148.242 158.326 161.876
ltibia 57.4343
lfoot -21.5326 2.13572
ltoes 0.135824
